<svg viewBox="0 0 800 237.1" xmlns="http://www.w3.org/2000/svg" xmlns:xlink="http://www.w3.org/1999/xlink">
    <linearGradient id="a" gradientTransform="matrix(23.7 0 0 -23.7 -3408.8 5493.4)" gradientUnits="userSpaceOnUse"
        x1="168.3" x2="168.3" y1="221.5" y2="257.6">
        <stop offset="0" stop-color="#1a1a1a" stop-opacity=".1" />
        <stop offset=".1" stop-color="#212121" stop-opacity=".2" />
        <stop offset=".3" stop-color="#353535" stop-opacity=".2" />
        <stop offset=".5" stop-color="#575757" stop-opacity=".3" />
        <stop offset=".8" stop-color="#858585" stop-opacity=".4" />
        <stop offset="1" stop-color="#b3b3b3" stop-opacity=".5" />
    </linearGradient>
    <path
        d="m794.9 209.1c0 12.5-10.2 22.7-22.7 22.7s0 0 0 0h-744.2c-12.6 0-22.8-10.2-22.8-22.7v-181.1c0-12.6 10.2-22.7 22.8-22.7h744.1c12.6 0 22.7 10.2 22.7 22.7s0 181.1 0 181.1z"
        fill="#fff" />
    <path
        d="m772.2 237.1h-744.2c-15.4 0-28-12.5-28-28v-181.1c0-15.5 12.6-28 28-28h744.1c15.5 0 28 12.6 28 28v181.1c0 15.4-12.6 28-28 28z"
        fill="#a6a6a6" />
    <path
        d="m794.9 209.1c0 12.5-10.2 22.7-22.7 22.7s0 0 0 0h-744.2c-12.6 0-22.8-10.2-22.8-22.7v-181.1c0-12.6 10.2-22.7 22.8-22.7h744.1c12.6 0 22.7 10.2 22.7 22.7s0 181.1 0 181.1z" />
    <path
        d="m178.7 117.3c-.2-19.1 15.7-28.4 16.4-28.8-9-13.1-22.9-14.8-27.7-15-11.7-1.2-23 7-28.9 7s-15.2-6.9-25.1-6.7c-12.7.2-24.6 7.5-31.1 18.9-13.4 23.3-3.4 57.4 9.5 76.2 6.4 9.2 14 19.5 23.8 19.1 9.6-.4 13.2-6.1 24.9-6.1s14.9 6.1 25 5.9c10.3-.2 16.9-9.2 23.1-18.5 7.4-10.5 10.4-20.9 10.6-21.5-.2 0-20.1-7.7-20.3-30.6zm-19-56.2c5.2-6.5 8.7-15.3 7.7-24.2-7.5.3-16.9 5.2-22.3 11.5-4.8 5.6-9.1 14.7-7.9 23.3 8.4.6 17.1-4.3 22.5-10.6z"
        fill="#fff" />
    <path d="m772.2 0h-398.6l156.1 237.1h242.5c15.5 0 28-12.5 28-28v-181.1c0-15.5-12.6-28-28-28z" fill="url(#a)" />
    <g fill="#fff">
        <path
            d="m318.3 186.8h-13.5l-7.4-23.2h-25.6l-7 23.2h-13.1l25.4-78.9h15.7zm-23.1-32.9-6.7-20.6c-.7-2.1-2-7.1-4-14.9h-.2c-.8 3.4-2 8.3-3.7 14.9l-6.6 20.6zm88.3 3.7c0 9.7-2.6 17.3-7.9 22.9-4.7 5-10.6 7.5-17.5 7.5s-13-2.7-16.3-8.1v29.9h-12.6v-61.3c0-6.1-.2-12.3-.5-18.7h11.1l.7 9h.2c4.2-6.8 10.6-10.2 19.2-10.2s12.3 2.7 16.8 8 6.7 12.3 6.7 21zm-12.9.5c0-5.5-1.2-10.1-3.7-13.7-2.7-3.7-6.4-5.6-11-5.6s-6 1-8.5 3.1-4.2 4.8-5 8.1c-.3 1.3-.5 2.5-.6 3.8v9.5c0 4.1 1.3 7.6 3.8 10.5 2.5 2.8 5.8 4.3 9.9 4.3s8.5-1.8 11.1-5.5c2.7-3.7 4-8.5 4-14.5zm78.4-.5c0 9.7-2.6 17.3-7.9 22.9-4.7 5-10.6 7.5-17.5 7.5s-13-2.7-16.3-8.1v29.9h-12.6v-61.3c0-6.1-.2-12.3-.5-18.7h11.1l.7 9h.2c4.2-6.8 10.6-10.2 19.2-10.2s12.3 2.7 16.8 8 6.7 12.3 6.7 21zm-12.9.5c0-5.5-1.3-10.1-3.8-13.7-2.7-3.7-6.4-5.6-11-5.6s-6 1-8.5 3.1-4.2 4.8-5 8.1c-.4 1.6-.6 2.8-.6 3.8v9.5c0 4.1 1.3 7.6 3.8 10.5 2.5 2.8 5.8 4.3 9.9 4.3s8.5-1.8 11.1-5.5c2.7-3.7 4-8.5 4-14.5zm86 6.6c0 6.7-2.3 12.2-7 16.4-5.1 4.6-12.3 6.9-21.5 6.9s-15.3-1.6-20.4-4.9l2.9-10.5c5.5 3.3 11.6 4.9 18.3 4.9s8.5-1.1 11.1-3.2c2.7-2.1 4-5 4-8.6s-1.1-5.9-3.3-8.1-5.8-4.2-10.9-6.1c-13.8-5.2-20.7-12.7-20.7-22.6s2.4-11.8 7.3-15.9 11.3-6.2 19.4-6.2 13.2 1.3 17.9 3.7l-3.2 10.3c-4.5-2.4-9.5-3.6-15.2-3.6s-8 1.1-10.5 3.3c-2.1 2-3.2 4.3-3.2 7.2s1.2 5.7 3.6 7.7c2.1 1.9 5.9 3.9 11.5 6.1 6.8 2.7 11.8 5.9 15 9.6s4.8 8.2 4.8 13.7zm42-25.3h-13.9v27.6c0 7 2.5 10.5 7.4 10.5s4.1-.2 5.6-.6l.3 9.6c-2.5.9-5.8 1.4-9.8 1.4s-8.9-1.5-11.7-4.6c-2.8-3-4.2-8.2-4.2-15.3v-28.7h-8.3v-9.5h8.3v-10.4l12.4-3.7v14.2h13.9zm62.7 18.5c0 8.7-2.5 15.9-7.5 21.5-5.2 5.8-12.2 8.7-20.8 8.7s-15-2.8-20-8.3-7.4-12.5-7.4-21 2.6-16 7.7-21.7c5.1-5.6 12-8.4 20.7-8.4s15.1 2.8 20.1 8.3c4.9 5.4 7.3 12.3 7.3 20.8zm-13.1.3c0-5.2-1.1-9.7-3.4-13.4-2.7-4.5-6.4-6.8-11.4-6.8s-8.9 2.3-11.6 6.8c-2.3 3.7-3.4 8.3-3.4 13.7s1.1 9.7 3.4 13.4c2.7 4.5 6.5 6.8 11.5 6.8s8.6-2.3 11.4-6.9c2.3-3.8 3.5-8.3 3.5-13.6zm54.2-17.2c-1.3-.2-2.6-.4-4-.3-4.4 0-7.9 1.7-10.3 5-2.1 3-3.2 6.7-3.2 11.2v29.9h-12.6v-39c0-6-.1-11.9-.4-17.9h11l.5 10.9h.3c1.3-3.7 3.4-6.8 6.3-9 2.6-2 5.8-3 9.1-3 1.2 0 2.2 0 3.2.2v12.1zm56.6 14.7c0 1.9-.1 3.8-.5 5.7h-37.9c.1 5.6 2 9.9 5.5 12.9 3.2 2.6 7.3 4 12.4 4s10.7-.9 15.3-2.7l2 8.8c-5.4 2.3-11.7 3.5-19.1 3.5s-15.8-2.6-20.8-7.8-7.5-12.2-7.5-20.9 2.3-15.7 7-21.4c4.9-6.1 11.5-9.1 19.9-9.1s14.4 3 18.6 9.1c3.3 4.8 5 10.8 5 17.9zm-12.1-3.3c0-3.8-.7-7-2.5-9.7-2.2-3.5-5.6-5.3-10.1-5.3s-7.5 1.7-10.1 5.2c-2.1 2.7-3.4 6-3.7 9.8h26.3z" />
        <path
            d="m268.1 80c-3.5 0-6.6-.2-9.1-.5v-38.1c3.5-.5 7.1-.8 10.7-.8 14.5 0 21.2 7.1 21.2 18.8s-7.9 20.7-22.8 20.7zm2.2-34.5c-2 0-3.6.1-5 .4v29c.7.1 2.2.2 4.2.2 9.5 0 14.9-5.4 14.9-15.5s-4.9-14-14.1-14zm41.4 34.8c-8.2 0-13.5-6.1-13.5-14.4s5.4-14.8 13.9-14.8 13.5 5.8 13.5 14.3-5.6 14.8-13.9 14.8zm.3-24.6c-4.5 0-7.4 4.2-7.4 10.1s2.9 10 7.3 10 7.3-4.5 7.3-10.1-2.9-9.9-7.2-9.9zm60.3-4-8.7 28h-5.7l-3.6-12.1c-.9-3-1.7-6-2.2-9h-.1c-.5 3-1.3 6.1-2.2 9l-3.9 12.1h-5.8l-8.2-28h6.4l3.2 13.3c.7 3.2 1.4 6.2 1.9 9h.1c.5-2.4 1.2-5.3 2.3-8.9l4-13.3h5.1l3.8 13.1c.9 3.2 1.7 6.3 2.2 9.2h.2c.4-2.9 1-5.9 1.9-9.2l3.4-13.1h6.1zm32.2 27.9h-6.2v-16.1c0-4.9-1.9-7.4-5.6-7.4s-6.2 3.2-6.2 6.8v16.6h-6.2v-20c0-2.5 0-5.1-.2-8h5.5l.3 4.3h.2c1.7-3 5.1-4.9 8.9-4.9 5.9 0 9.7 4.5 9.7 11.8v16.7zm17.1 0h-6.2v-40.8h6.2zm22.7.7c-8.2 0-13.5-6.1-13.5-14.4s5.4-14.8 13.9-14.8 13.5 5.8 13.5 14.3c0 8.7-5.6 14.8-13.9 14.8zm.2-24.6c-4.5 0-7.4 4.2-7.4 10.1s2.9 10 7.3 10 7.3-4.5 7.3-10.1c0-5.7-2.9-9.9-7.2-9.9zm38.2 23.9-.5-3.2h-.2c-1.9 2.6-4.7 3.9-8.2 3.9-5 0-8.6-3.5-8.6-8.2 0-6.9 6-10.5 16.3-10.5v-.5c0-3.7-2-5.5-5.8-5.5s-5.2.7-7.3 2.1l-1.3-4.1c2.6-1.6 5.8-2.4 9.6-2.4 7.3 0 11 3.9 11 11.6v10.3c0 2.8.1 5 .4 6.7h-5.6zm-.8-13.9c-6.9 0-10.4 1.7-10.4 5.6s1.8 4.4 4.3 4.4 6.1-2.4 6.1-5.7zm36.2 13.9-.3-4.5h-.2c-1.8 3.4-4.8 5.1-9 5.1-6.7 0-11.7-5.9-11.7-14.3s5.2-14.9 12.2-14.9 6.4 1.3 7.9 3.8h.1v-16.1h6.2v33.3c0 2.7 0 5.2.2 7.5h-5.5zm-.9-16.4c0-3.9-2.6-7.3-6.5-7.3s-7.4 4.1-7.4 9.8 2.9 9.5 7.3 9.5 6.7-3.4 6.7-7.4v-4.7zm45.6 17.1c-8.2 0-13.5-6.1-13.5-14.4s5.4-14.8 13.9-14.8 13.5 5.8 13.5 14.3c0 8.7-5.6 14.8-13.9 14.8zm.3-24.6c-4.5 0-7.4 4.2-7.4 10.1s2.9 10 7.3 10 7.3-4.5 7.3-10.1c0-5.7-2.9-9.9-7.2-9.9zm47.1 23.9h-6.2v-16.1c0-4.9-1.9-7.4-5.6-7.4s-6.2 3.2-6.2 6.8v16.6h-6.2v-20c0-2.5 0-5.1-.2-8h5.5l.3 4.3h.2c1.7-3 5.1-4.9 8.9-4.9 5.9 0 9.7 4.5 9.7 11.8v16.7zm41.8-23.3h-6.8v13.6c0 3.5 1.2 5.2 3.6 5.2s2-.1 2.8-.3l.2 4.7c-1.2.5-2.8.7-4.8.7-4.9 0-7.8-2.7-7.8-9.8v-14.1h-4.1v-4.7h4.1v-5.1l6.1-1.8v7h6.8v4.7zm32.9 23.3h-6.2v-15.9c0-5-1.9-7.5-5.6-7.5s-6.2 2.2-6.2 6.6v16.9h-6.2v-40.8h6.2v16.8h.1c2-3 4.8-4.5 8.4-4.5 5.9 0 9.5 4.6 9.5 11.9v16.6zm33.7-12.4h-18.7c.1 5.3 3.6 8.3 8.8 8.3s5.3-.5 7.5-1.3l1 4.3c-2.6 1.2-5.8 1.7-9.4 1.7-8.7 0-13.9-5.5-13.9-14.1s5.3-15 13.2-15 11.6 5.3 11.6 13.3c0 .9 0 1.9-.2 2.8zm-5.7-4.5c0-4.3-2.2-7.4-6.2-7.4s-6.4 3.1-6.8 7.4h12.9z" />
    </g>
</svg>