<svg viewBox="0 0 800 237" xmlns="http://www.w3.org/2000/svg" xmlns:xlink="http://www.w3.org/1999/xlink"><linearGradient id="a" gradientUnits="userSpaceOnUse" x1="124" x2="25.47" y1="44.95" y2="144.07"><stop offset="0" stop-color="#00a0ff"/><stop offset="0" stop-color="#00a1ff"/><stop offset=".3" stop-color="#00beff"/><stop offset=".5" stop-color="#00d2ff"/><stop offset=".8" stop-color="#00dfff"/><stop offset="1" stop-color="#00e3ff"/></linearGradient><linearGradient id="b" gradientUnits="userSpaceOnUse" x1="195.39" x2="52.61" y1="111.62" y2="111.62"><stop offset="0" stop-color="#ffe000"/><stop offset=".4" stop-color="#ffbd00"/><stop offset=".8" stop-color="#ffa500"/><stop offset="1" stop-color="#ff9c00"/></linearGradient><linearGradient id="c" gradientUnits="userSpaceOnUse" x1="142.29" x2="7.77" y1="125.19" y2="259.12"><stop offset="0" stop-color="#ff3a44"/><stop offset="1" stop-color="#c31162"/></linearGradient><linearGradient id="d" gradientUnits="userSpaceOnUse" x1="38.45" x2="98.63" y1="-5.2" y2="54.98"><stop offset="0" stop-color="#32a071"/><stop offset="0" stop-color="#2da771"/><stop offset=".5" stop-color="#15cf74"/><stop offset=".8" stop-color="#06e775"/><stop offset="1" stop-color="#00f076"/></linearGradient><path d="m770.4 237h-740.8c-16.6 0-29.6-13-29.6-29.6v-177.8c0-16.6 13-29.6 29.6-29.6h740.7c16.6 0 29.6 13 29.6 29.6v177.8c0 16.6-13 29.6-29.6 29.6z"/><path d="m770.4 4.7c13.6 0 24.9 11.3 24.9 24.9v177.8c0 13.6-11.3 24.9-24.9 24.9h-740.8c-13.6 0-24.9-11.3-24.9-24.9v-177.8c-0-13.6 11.3-24.9 24.9-24.9h740.7m.1-4.7h-740.8c-16.6 0-29.6 13.6-29.6 29.6v177.8c0 16.6 13 29.6 29.6 29.6h740.7c16.6 0 29.6-13 29.6-29.6v-177.8c0-16-13-29.6-29.6-29.6z" fill="#a6a6a6"/><path d="m280.9 60.4c0 4.7-1.2 8.9-4.1 11.9-3.6 3.6-7.7 5.3-13 5.3s-9.5-1.8-13-5.3c-3.6-3.6-5.3-7.7-5.3-13s1.8-9.5 5.3-13c3.6-3.6 7.7-5.3 13-5.3s4.7.6 7.1 1.8 4.1 2.4 5.3 4.1l-3 3c-2.4-3-5.3-4.1-9.5-4.1s-7.1 1.2-9.5 4.1c-3 2.4-4.1 5.9-4.1 10.1s1.2 7.7 4.1 10.1 5.9 4.1 9.5 4.1 7.1-1.2 10.1-4.1c1.8-1.8 3-4.1 3-7.1h-13v-4.7h17.2v2.4zm27.2-14.8h-16v11.3h14.8v4.1h-14.8v11.3h16v4.7h-20.7v-35.6h20.7v4.1zm19.6 31.4h-4.7v-31.4h-10.1v-4.1h24.9v4.1h-10.1zm27.3 0v-35.6h4.7v35.6zm24.9 0h-4.7v-31.4h-10.1v-4.1h24.3v4.1h-10.1v31.4zm56.2-4.7c-3.6 3.6-7.7 5.3-13 5.3s-9.5-1.8-13-5.3c-3.6-3.6-5.3-7.7-5.3-13s1.8-9.5 5.3-13c3.6-3.6 7.7-5.3 13-5.3s9.5 1.8 13 5.3c3.6 3.6 5.3 7.7 5.3 13s-1.8 9.5-5.3 13zm-22.5-3c2.4 2.4 5.9 4.1 9.5 4.1s7.1-1.2 9.5-4.1c2.4-2.4 4.1-5.9 4.1-10.1s-1.2-7.7-4.1-10.1c-2.4-2.4-5.9-4.1-9.5-4.1s-7.1 1.2-9.5 4.1c-2.4 2.4-4.1 5.9-4.1 10.1s1.2 7.7 4.1 10.1zm34.4 7.7v-35.6h5.3l17.2 27.9v-27.9h4.7v35.6h-4.7l-18.4-29v29z" fill="#fff" stroke="#fff" stroke-miterlimit="59.3" stroke-width="1.2"/><path d="m403.6 129.2c-14.2 0-25.5 10.7-25.5 25.5s11.3 25.5 25.5 25.5 25.5-10.7 25.5-25.5-11.3-25.5-25.5-25.5zm0 40.3c-7.7 0-14.2-6.5-14.2-15.4s6.5-15.4 14.2-15.4 14.2 5.9 14.2 15.4-6.5 15.4-14.2 15.4zm-55.2-40.3c-14.2 0-25.5 10.7-25.5 25.5s11.3 25.5 25.5 25.5 25.5-10.7 25.5-25.5-11.3-25.5-25.5-25.5zm0 40.3c-7.7 0-14.2-6.5-14.2-15.4s6.5-15.4 14.2-15.4 14.2 5.9 14.2 15.4-6.5 15.4-14.2 15.4zm-65.7-32.6v10.7h25.5c-.6 5.9-3 10.7-5.9 13.6-3.6 3.6-9.5 7.7-19.6 7.7-16 0-27.9-12.4-27.9-28.4s12.4-28.4 27.9-28.4 14.8 3.6 19.6 7.7l7.7-7.7c-6.5-5.9-14.8-10.7-26.7-10.7-21.3 0-39.7 17.8-39.7 39.1s18.4 39.1 39.7 39.1 20.1-3.6 27.3-11.3c7.1-7.1 9.5-17.2 9.5-24.9s0-4.7-.6-6.5h-36.7zm269 8.3c-2.4-5.9-8.3-16-21.3-16s-23.7 10.1-23.7 25.5 10.7 25.5 24.9 25.5 18.4-7.1 20.7-11.3l-8.3-5.9c-3 4.1-6.5 7.1-12.4 7.1s-9.5-2.4-12.4-7.7l33.8-14.2-1.2-3zm-34.4 8.3c0-9.5 7.7-14.8 13-14.8s8.3 2.4 9.5 5.3zm-27.8 24.3h11.3v-74.1h-11.3zm-17.8-43.3c-3-3-7.7-5.9-13.6-5.9-12.4 0-24.3 11.3-24.3 25.5s11.3 24.9 24.3 24.9 10.7-3 13-5.9h.6v3.6c0 9.5-5.3 14.8-13.6 14.8s-11.3-4.7-12.4-8.9l-9.5 4.1c3 6.5 10.1 14.8 22.5 14.8s23.7-7.7 23.7-26.1v-45h-10.7zm-13 35c-7.7 0-14.2-6.5-14.2-15.4s6.5-15.4 14.2-15.4 13.6 6.5 13.6 15.4-5.9 15.4-13.6 15.4zm144.6-65.8h-26.7v74.1h11.3v-27.9h15.4c12.4 0 24.3-8.9 24.3-23.1s-11.9-23.1-24.3-23.1zm.6 35.6h-16v-25.5h16c8.3 0 13 7.1 13 12.4-.6 6.5-5.3 13-13 13zm68.1-10.7c-8.3 0-16.6 3.6-19.6 11.3l10.1 4.1c2.4-4.1 5.9-5.3 10.1-5.3 5.9 0 11.3 3.6 11.9 9.5v.6c-1.8-1.2-6.5-3-11.3-3-10.7 0-21.3 5.9-21.3 16.6s8.9 16.6 18.4 16.6 11.3-3.6 14.2-7.1h.6v5.9h10.7v-28.4c-1.2-13-11.3-20.7-23.7-20.7zm-1.2 40.9c-3.6 0-8.9-1.8-8.9-6.5s6.5-7.7 11.9-7.7 7.1 1.2 10.1 2.4c-1.2 7.1-7.1 11.9-13 11.9zm62.2-39.1-12.4 32h-.6l-13-32h-11.9l19.6 45-11.3 24.9h11.3l30.2-69.9zm-99.5 47.4h11.3v-74.1h-11.3z" fill="#fff"/><path d="m61.6 44.4c-1.8 1.8-2.4 4.7-2.4 8.3v131c0 3.6 1.2 6.5 3 8.3l.6.6 73.5-73.5v-1.2z" fill="url(#a)"/><path d="m160 144-24.3-24.3v-1.8l24.3-24.3.6.6 29 16.6c8.3 4.7 8.3 12.4 0 17.2z" fill="url(#b)"/><path d="m160.6 143.4-24.9-24.9-74.1 74.1c3 3 7.1 3 12.4.6l86.5-49.8" fill="url(#c)"/><path d="m160.6 93.6-86.5-49.2c-5.3-3-9.5-2.4-12.4.6l74.1 73.5 24.9-24.9z" fill="url(#d)"/><path d="m160 142.8-85.9 48.6c-4.7 3-8.9 2.4-11.9 0l-.6.6.6.6c3 2.4 7.1 3 11.9 0z" opacity=".2"/><path d="m61.6 191.4c-1.8-1.8-2.4-4.7-2.4-8.3v.6c0 3.6 1.2 6.5 3 8.3v-.6zm128-65.2-29.6 16.6.6.6 29-16.6c4.1-2.4 5.9-5.3 5.9-8.3 0 3-2.4 5.3-5.9 7.7z" opacity=".1"/><path d="m74.1 45 115.6 65.8c3.6 2.4 5.9 4.7 5.9 7.7 0-3-1.8-5.9-5.9-8.3l-115.6-65.8c-8.3-4.7-14.8-1.2-14.8 8.3v.6c0-8.9 6.5-13 14.8-8.3z" fill="#fff" opacity=".2"/></svg>